<?xml version="1.0" ?><svg viewBox="0 0 64 64" xmlns="http://www.w3.org/2000/svg"><g id="medical-coronavirus-covid19-drug-syringe"><polygon points="22 13 18 13 14 13 14 41 16 41 24 41 26 41 26 37 26 33 26 29 26 25 26 21 26 17 26 13 22 13" style="fill:#9bc9ff"/><path d="M16,43a2,2,0,0,0,2,2h4a2,2,0,0,0,2-2V41H16Z" style="fill:#9bc9ff"/><rect height="6" style="fill:#9bc9ff" width="4" x="18" y="7"/><path d="M25,7a2,2,0,0,0,2-2V3H13V5a2,2,0,0,0,2,2H25Z" style="fill:#9bc9ff"/><polygon points="43 21 47 21 47 17 51 17 51 13 47 13 47 9 43 9 43 13 39 13 39 17 43 17 43 21" style="fill:#9bc9ff"/><path d="M39,18h3v3a1,1,0,0,0,1,1h4a1,1,0,0,0,1-1V18h3a1,1,0,0,0,1-1V13a1,1,0,0,0-1-1H48V9a1,1,0,0,0-1-1H43a1,1,0,0,0-1,1v3H39a1,1,0,0,0-1,1v4A1,1,0,0,0,39,18Zm1-4h3a1,1,0,0,0,1-1V10h2v3a1,1,0,0,0,1,1h3v2H47a1,1,0,0,0-1,1v3H44V17a1,1,0,0,0-1-1H40Z" style="fill:#1e81ce"/><path d="M61.99,50.73a3.036,3.036,0,0,0-2.21-2.6,3.031,3.031,0,0,0,.21-1.4A3.087,3.087,0,0,0,56.89,44H49.46A3.989,3.989,0,0,0,50,42V41a1,1,0,0,0-1-1H38.66a5.036,5.036,0,0,0-3.54,1.46l-.66.66a3,3,0,0,1-2.12.88H25V42h1a1,1,0,0,0,1-1V13a1,1,0,0,0-1-1H23V8h2a3.009,3.009,0,0,0,3-3V3a1,1,0,0,0-1-1H13a1,1,0,0,0-1,1V5a3.009,3.009,0,0,0,3,3h2v4H14a1,1,0,0,0-1,1V41a1,1,0,0,0,1,1h1v1H3a1,1,0,0,0-1,1V58a1,1,0,0,0,1,1H32.34a3,3,0,0,1,2.12.88l.66.66A5.036,5.036,0,0,0,38.66,62H53a3,3,0,0,0,3-3,3,3,0,0,0-.17-1H57a3,3,0,0,0,3-3,2.873,2.873,0,0,0-.21-1.1,2.942,2.942,0,0,0,1.32-.77A2.989,2.989,0,0,0,61.99,50.73ZM15,6a1,1,0,0,1-1-1V4H26V5a1,1,0,0,1-1,1Zm6,2v4H19V8Zm-6,6H25v2H20a1,1,0,0,0,0,2h5v2H22a1,1,0,0,0,0,2h3v2H20a1,1,0,0,0,0,2h5v2H22a1,1,0,0,0,0,2h3v2H20a1,1,0,0,0,0,2h5v2H22a1,1,0,0,0,0,2h3v2H15Zm8,28v1a1,1,0,0,1-1,1H18a1,1,0,0,1-1-1V42Zm36.69,9.71A.928.928,0,0,1,59,52H47a1,1,0,0,0,0,2H57a1,1,0,0,1,1,1,.949.949,0,0,1-.31.71A.928.928,0,0,1,57,56H47a1,1,0,0,0,0,2h6a1,1,0,0,1,1,1,.949.949,0,0,1-.31.71A.928.928,0,0,1,53,60H38.66a3,3,0,0,1-2.12-.88l-.66-.66A5.036,5.036,0,0,0,32.34,57H4V45H15.78A2.986,2.986,0,0,0,18,46h1v5H18a1,1,0,0,0,0,2h4a1,1,0,0,0,0-2H21V46h1a2.986,2.986,0,0,0,2.22-1h8.12a5.036,5.036,0,0,0,3.54-1.46l.66-.66A3,3,0,0,1,38.66,42H48a2.006,2.006,0,0,1-2,2H43a1,1,0,0,0-1,1,3.009,3.009,0,0,1-3,3H38a1,1,0,0,0,0,2h1a5.009,5.009,0,0,0,4.9-4H56.89a1.073,1.073,0,0,1,1.1.92.938.938,0,0,1-.3.79A.928.928,0,0,1,57,48H47a1,1,0,0,0,0,2H58.89a1.073,1.073,0,0,1,1.1.92A.938.938,0,0,1,59.69,51.71Z" style="fill:#1e81ce"/><path d="M39.748,26.894,38.03,33.757a1,1,0,0,0,1.6,1.017L48.5,27.52a13,13,0,1,0-8.75-.626ZM45,4a11,11,0,0,1,2.779,21.642,1,1,0,0,0-.382.194L40.7,31.314l1.2-4.781a1,1,0,0,0-.631-1.184A11,11,0,0,1,45,4Z" style="fill:#1e81ce"/></g></svg>