<?xml version="1.0" ?><!DOCTYPE svg  PUBLIC '-//W3C//DTD SVG 1.1//EN'  'http://www.w3.org/Graphics/SVG/1.1/DTD/svg11.dtd'><svg height="512px" id="Layer_1" style="enable-background:new 0 0 512 512;" version="1.1" viewBox="0 0 512 512" width="512px" xml:space="preserve" xmlns="http://www.w3.org/2000/svg" xmlns:xlink="http://www.w3.org/1999/xlink"><style type="text/css">
<![CDATA[
	.st0{fill:#319997;}
	.st1{fill-rule:evenodd;clip-rule:evenodd;fill:#319997;}
]]>
</style><g><path class="st0" d="M95.468,416.506c41.078,41.078,97.838,66.49,160.532,66.49s119.448-25.412,160.532-66.49   c41.078-41.082,66.489-97.838,66.489-160.537c0-62.687-25.411-119.448-66.489-160.531C375.448,54.36,318.693,28.948,256,28.948   S136.546,54.36,95.468,95.438c-41.083,41.083-66.495,97.844-66.495,160.531C28.973,318.668,54.385,375.424,95.468,416.506    M256-0.025c141.382,0,256,114.612,256,255.994c0,141.389-114.618,256-256,256c-141.388,0-256-114.611-256-256   C0,114.587,114.612-0.025,256-0.025z"/><path class="st1" d="M338.938,172.444v9.907v19.826H173.067v-4.959h31.086c1.56,0,2.834-1.269,2.834-2.834   c0-1.56-1.264-2.829-2.834-2.829l-31.086-0.006v-2.75h14.089c1.565,0,2.834-1.264,2.834-2.835c0-1.571-1.264-2.834-2.834-2.834   l-14.089-0.006v-2.717h14.089c1.565,0,2.834-1.264,2.834-2.835s-1.264-2.835-2.834-2.835l-14.089-0.005v-2.287v-0.453h14.089   c1.565,0,2.834-1.264,2.834-2.829c0-1.56-1.264-2.84-2.834-2.84h-14.089v-2.388c0-0.123,0.017-0.229,0.017-0.347h31.07   c1.56,0,2.834-1.269,2.834-2.829c0-1.565-1.264-2.852-2.834-2.852h-29.655c2.292-4.596,7.089-7.783,12.552-7.783H325.14   c7.638,0,13.799,6.184,13.799,13.804V172.444z M330.367,137.388h-51.074c-0.621-4.797-4.697-8.499-9.645-8.499H242.38   c-4.959,0-9.041,3.701-9.655,8.493l-51.086,0.006c-11.719,0-21.235,9.51-21.235,21.235v72.768v126.416v9.023   c0,29.33,23.79,53.109,53.127,53.109h9.505c0.43,6.541,5.58,11.775,12.071,12.334c0.52,4.064,3.98,7.201,8.18,7.201h5.032   c1.868,3.68,6.447,15.086-0.308,28.605c-6.469,12.959-7.76,23.029-3.936,30.773c3.282,6.686,10.187,11.074,20.475,13.043   c0.414,0.084,0.8,0.129,1.208,0.129c2.997,0,5.663-2.137,6.262-5.189c0.665-3.449-1.594-6.787-5.06-7.447   c-6.156-1.189-10.02-3.27-11.451-6.178c-1.89-3.813-0.537-10.521,3.92-19.434c7.011-14.035,5.199-26.541,2.622-34.303h4.378   c4.199,0,7.665-3.137,8.18-7.201c6.48-0.559,11.624-5.793,12.055-12.334h11.819c29.336,0,53.115-23.779,53.115-53.109v-9.023   V231.391v-72.768C351.603,146.898,342.098,137.388,330.367,137.388z"/></g></svg>